<?xml version="1.0" encoding="UTF-8"?><svg id="Layer_2" xmlns="http://www.w3.org/2000/svg" xmlns:xlink="http://www.w3.org/1999/xlink" viewBox="0 0 82.35 78.43"><defs><style>.cls-1{fill:url(#linear-gradient);}.cls-2{fill:url(#linear-gradient-3);}.cls-3{fill:url(#linear-gradient-4);}.cls-4{opacity:.63;}.cls-5{fill:url(#linear-gradient-2);opacity:.72;}</style><linearGradient id="linear-gradient" x1="279.76" y1="28.34" x2="281.08" y2="34.22" gradientTransform="translate(288.3) rotate(-180) scale(.92 -1)" gradientUnits="userSpaceOnUse"><stop offset="0" stop-color="#c7e9f6"/><stop offset=".36" stop-color="#aee1f6"/><stop offset=".74" stop-color="#9bdcf7"/><stop offset="1" stop-color="#95daf8"/></linearGradient><linearGradient id="linear-gradient-2" x1="288.55" y1="54.88" x2="289.93" y2="71.24" gradientTransform="translate(288.3) rotate(-180) scale(.92 -1)" gradientUnits="userSpaceOnUse"><stop offset="0" stop-color="#ebf7fc"/><stop offset="1" stop-color="#9adbf9"/></linearGradient><linearGradient id="linear-gradient-3" x1="24.99" y1="40.79" x2="16.44" y2="71.29" gradientTransform="translate(10.48 10.88) rotate(-5.81) scale(1.38 1) skewX(-.62)" gradientUnits="userSpaceOnUse"><stop offset="0" stop-color="#b6e0eb"/><stop offset="1" stop-color="#5ec1ee"/></linearGradient><linearGradient id="linear-gradient-4" x1="30.48" y1="19.2" x2="21.28" y2="46.37" gradientUnits="userSpaceOnUse"><stop offset="0" stop-color="#c7e9f6"/><stop offset=".33" stop-color="#9fdaf3"/><stop offset=".78" stop-color="#70c8ef"/><stop offset="1" stop-color="#5ec1ee"/></linearGradient></defs><g id="About"><g id="aboutclouds2" class="cls-4"><path class="cls-1" d="m39.36,31.53c-2.4-2.64-5.62-4-8.76-3.71-1.09-1.85-3.08-2.47-4.86-2.14s-3.4,1.45-4.98,2.55c-.33.23-.67.48-.85.9-.59,1.41,1.06,2.56,2.3,2.77,4.34.71,8.69,1.42,13.03,2.13,1.51.25,3.67-.24,4.12-2.5Z"/><path class="cls-5" d="m.88,58.89c2.04-2.44,5.3-.98,7.8.6,1.61,1.02,3.21,2.04,4.82,3.05-.63-1.81-.92-4.62.55-5.15,1.74-.63,2.82,3.25,4.63,3.06.54-.06,1.01-.48,1.46-.88,2.84-2.48,6.84-4,9.57-1.32.98.97,1.66,2.36,2.58,3.43,2.13,2.49,5.23,2.94,7.79,4.62.93.61,1.88,1.53,2.07,2.87.35,2.46-1.95,4.1-3.87,4.44-2.84.5-5.79,0-8.43-1.43-1.57-.85-3.04-2.02-4.62-2.84-4.74-2.44-10.06-1.47-15.14-.79-2.59.35-5.4.56-7.63-1.2s-3.33-6.36-1.56-8.48Z"/><path class="cls-2" d="m25.78,43.33c4.13.67,7.18,4.15,6.9,7.87,6.12-.78,10.63,4.58,11.37,9.82.1.75.21,1.57.86,2.04.5.35,1.2.4,1.82.56,2.6.66,3.83,3.24,6.25,4.25,2.72,1.13,6.07.02,9.14-.61s7.02-.33,7.96,2.19c-.26.8-.52,1.6-.78,2.39,4.6-1.29,17.72-.63,11.33,4.65-2.9,1.12-5.99,2.18-9.03,1.89-1.6-.15-3.08-.68-4.63-1-5.81-1.2-13.37.05-16.66-4.19-.88-1.14-1.41-2.66-2.89-3.18-.93-.32-2-.16-3.03-.1-4.41.26-8.73-1.57-11.04-4.69-.61-.82-1.09-1.73-1.9-2.4-1.06-.89-2.56-1.26-4-1.61-3.5-.85-6.99-1.7-10.49-2.54-1.02-.25-2.06-.5-3.14-.45-.8.03-1.62.23-2.4.13-.77-.1-1.43-.47-2.01-.9-3.94-2.9-4.29-8.83-.74-12.56s9.52-2.79,17.12-1.57Z"/><path class="cls-3" d="m2.33,32.46c.23-11.61,4.99-22.98,12.64-30.16C16.18,1.17,17.54.1,19.08,0c1.38-.08,2.7.64,3.89,1.46,3.25,2.22,6.39,6.17,5.69,10.56,6.29-.44,12.69,2.82,16.79,8.53,1.94-.45,3.98-.89,5.85-.13s3.42,3.17,2.82,5.42c-.5,1.86-2.2,2.84-3.76,3.44-5.95,2.28-12.53,2.16-18.42-.35-.68-.29-1.43-.61-2.11-.32-.64.27-1.03,1.01-1.49,1.61-1.73,2.26-4.59,2.69-7.15,2.45s-5.13-1-7.67-.54c-1.01.18-2.02.56-3.03.36-2.87-.57-3.69-5.03-8.17-.03Z"/></g></g></svg>